<mxfile host="65bd71144e">
    <diagram id="HIP3nbAZw_EuaXWnEj3U" name="Page-1">
        <mxGraphModel dx="1086" dy="641" grid="1" gridSize="10" guides="1" tooltips="1" connect="1" arrows="1" fold="1" page="1" pageScale="1" pageWidth="850" pageHeight="1100" math="0" shadow="0">
            <root>
                <mxCell id="0"/>
                <mxCell id="1" parent="0"/>
                <mxCell id="7" value="http://ics2o.mths.ca" style="swimlane;whiteSpace=wrap;html=1;" parent="1" vertex="1">
                    <mxGeometry x="40" y="40" width="760" height="480" as="geometry"/>
                </mxCell>
                <mxCell id="8" value="" style="shape=image;verticalLabelPosition=bottom;labelBackgroundColor=default;verticalAlign=top;aspect=fixed;imageAspect=0;image=data:image/png,iVBORw0KGgoAAAANSUhEUgAAAOsAAADWCAMAAAAHMIWUAAABxVBMVEX///+u4vf/WwD5zLj+YwCw4vOw3/XzejSq5fn9//+t4/f6//////7/XwD/XgD8ZAD//vn7ZwBuywDXAHt8ywDL6rCs4/lyyQD8//v6XwD/ZQD1//+13/XcAHvZAHKx4f+u5O/ZAHP/VQD///Oj6v/++v+s6PjTAHyo5v+23vfWAHaZ2auo5/P69+/zYwD75tWg7/+x1fH7nW29vuOzze3yezHxp2H6zZ//RwD2bBf4roDytpb78Nz8jFj6lln917vycBz1gEfHwbn7v6PniFq60tn+qYPann/emXWx4OHJt6y43+zNsZfrgSuo6O29ysPlkGv/mGv92sfybjPHxsnTqpftfTjriVP09uP+aSXqflP2t4v/7ODokmiz1dz2283dpoH+qnjdnG750KrYrJrsQUjnYV3Gj8XSP5HoHkvPUZ+7nc+5wtPRLp+3r9jKdrO+pNHLba3KQ5fFwa3YYai/j8Xek3yx4dXm8cyQ0zep3HXP6Jy434ik1luoxEOMwA3AmADi1ZeZsQCD1kzRjACO1ICY2Z2oqgDW9bXffgCP1nOg4K16yy610r79rY/wd0PWu7n2SifbHWXxOja9jcm/oDbFzG9llQ2+AAAXZklEQVR4nO1dC3vU1pnWyDryuUg6Oh5HljwXaS7WaIYZeXxhswJjezAG2+O1wVAMwTgksMWFroEEQtJNtt2m6XazaWm73f29ezTGXG3m4rnZ2zd5WvI8UaR3znc/3/mOIHQdMRP9g2AqSvff3HVkxsjH/zigxzK9/pAugOgxyQ+QTnr9Id0AOqMy8Szq9Wd0GorA13OcSoHmz/A/nWidRUjX0Tk10AJtlgi6eZIXl69lbE4L1EHJF+dipn6iuSokM0jZfDFgakVByknmKujklkXF89kV0bcWYsKJ1le9xKh0wQPGBYmx0om2TSb6zFetRWCARU31L55cEUb8r3HJUi9BbHjuksik8V5/UqcQUtUrvhQs56HjOdsWk66cVOOEuDsdsHxxJTuRrWbj3qrI1AFinkwfawozg0z9J8/Jr9luVS7Oa2xwhpzIpUVjsbMiE9cj0Fu2ZQiN8xYPi09oBoDGA0m9DEFkD27kAg+Mt07isgoKuqIxa9mGL7nK7rbItElyIn3shsWsS9mq/ZKrsexdoqPWRq8/q+1AOjIrlF6tRlz5JVdgyMtXqVox0QlLARSTLIiSthLBOLIvwxiDFZVaC8Q8UWKsEFIKfPWTIt63THxdgQuNikWDEjlZOmsKF1XmLxo44rr76xoBEe+a74tnhBO1sMQcV6m4tGZEXguxEQEyLn6lMWnrJMVOSDHP+dTn+U3kbRjOImP+7AmiyjFnUe1nZRu8wxV4xZ+JkjV3YshyIsogta4DAN/jajjVQU06rff6G9sFFEPc39DzWHYj7wJE8HlLEhfQCYmLzbEb1Keb8D2ie8Cb1Gc3xk7G0hIyqdHR7Xft0issSlS7SE7GwpKNNFPveO/q6mv7dEll4vjx5zqGzJhZkWjg5N9X1pdcHSeg1rkMQcTs9eceCaauo4G0r60a7/nWfRhAXlWpNoAU5ZivrRIr3WT0Ewe8ym/el2Encp36gRLTj3eoqCB0xqLWOl+9w0wTdCC45lPtFjreVAWTbKlMup3lruUwrmHqk71g+daMcLxl2ETnLMqqh/qbfb7blNEr5Hj7WPSpRdVLh/qb1zp7R2Xp8eMdFqNBlV6tOvXW1QDxeYkOHl8ZNhUz9nF6VP3SzR8WH+7Dc7KrFkvfjZHM8TRQekwoab626XnFeB2uVQi9CrOYbsaOp87GbpDPLMnaxvHiYb51H9ir4u00sz6LlWK9/uyWoJAZkWqfe6AYP9ThvASsesD73BrVto5p6Ukng5QyUM8G78PY9iV6/ZgGFOguz29WvHp26ZUcZ+9p3DwdT7+T4YHwfHa5nr/ZB3C8QApuHkN9VZBwS5TEdeA1SDViA3ie6/ct4bi1AiGdzEgS3SzLuJ4NfiXDPCze1CjbimWOV0yhK+YV1VfX8rBRdQ0Bt5mvXUTHzD7FzE81FvzzbtmdaNg24Qg2fj7KrPHj1G6rKDxmGlRVMZe6b7hYxocndC8hQxyB2JjYSVm+WuH5znFZWUUxBTSgUf8XuWjywYTrQrmezhr5CIbwYTSV+wWX4rAc02sSDcIUBFIKqDT7MFFIFKLP8i44rK62D1CEcOpBMppLPahIUlBC5JjoLHcZykVLUq+Vf/kvqWg0tbNr4DpCDMoTj3KpXCpx31u3qHVGODb2CZFxn2lLbj5bfZTibJMPdvMQQxyPhLr7pjmqGSRswOlHuQL/93amXGzcVqm/hdDxqJ+aOrqispthwIQjU1+kEtFEcuf+NDS45sKIHIG1XdhaOAUxdt387tNoIcfl/ZkMa2ExsybJMemhCFvxWHrV3lPEyOOdZC6aKOQePJuyoQtdNxRojEOWLl/Rx09yhVzI9MnE3pZ7rXlv7pi4nVhpUKKDe/mNC+Mu5GwT0Vwimdh5ev/x1LRsZLNZaNjTu48ffZErFBKJRDL3aEIu75lrAAYl6foxyWPRWZFa5/d6tgzuOQGWp54kuJGNJlJcfXO5nRpyuUIq5JlIcQmfgIB7ptojrv2lRcWz/X/IA+kIbTGqbhYjb/gZLq/yw6e5ZIoboJBd4uX/cZ6pAldlbrfesFi2s6lS7ndMob91lmQI4v6GrmfBWxY31E176v7TnVwyWUiFKKSSXIcfPZ4wIHbf+ndBdt2SrIuE9Pn+DtJjc5RZlzwb5N/8fjnOTVHEzRr56d2HD59xPNyd4jQhlONu/i33i4GRvaRSOtf37bYEzVo0ACDuvpWj1/7BxXHgFl0eDUIutNjl5ouzlLHxVggpu3FQDSRrtt9jJ4V8LPrpL91GixEHwwCraV8c0Ps7njBLgSRVoFwvsalL9jo3T33OVbglMmu90VLEYcBAXteYeLaP6+KmYG5JVP3K8erlNfXgGvnLVPK3TKFfl5YI5hVf8tfX5Hx9Oh8E4H6HUTpJ+jUFUBDasDT1XhbGjSPqK64a3h1N0jYI6k85RmOZQYkNAkM2mimoHQg5blSv8rA4M9af8YSOFnjEdJ4HTEfzOCFVw4V4xaLa3T4VYiUTnoEE8Ijyuw/ofKJarE/3Y8MdSHbNa3iz6sMA2Lg2yqwz/SnD4xZTl+BR3c0+sAyyS6qv9uFZSmKSCpXmq+2S4BBwMaDqLDL7LG3PIPOu6GsrbWTK4d5jljZnov4aMaKYhPlqBRzZ2byN4lWJBv22l0WEsyKl5xvegGwMcnbFt8SFPsrtlHCUwowv0Qsebo8N3geQvU2qshlT6ZfaeDgMhFzRfLq9FjlqhvM2bMfdVgN1kug66o8aRTgMZDztq3ew7LRXX10Qse9ovjge65faOOeauU5p4PKQqb0yHJ5pKfpUqmT6pi3TJB+LkrjSZsP0EnBFpOLdWJ+YYlLKSKO04rXXt+4DexXKRs1Mf8iwic5Yo9piZ6hyOQ5HjJzplwLFTJqpl7OHHl44GgzgXZYssdRrkkJtShG6bknWcrtDpn0AL/I8HWhXFDTWYzEmegzNifPivbJdt/m7NcTX8tl7YiBuoFiv9zzMscwg04LscsO9PU3CXsvHy0xkg5meqOzL3cLwf5HwchiI4y3b9T+8BcjLnmN/6Y9qC7Fe7O/oiqKbqHZySCFbgco2sx2h+QrYrVB1vtQLfR37+iMuvGYoUghNWpK4/N6B5fbCtZfFUetiL2Ji85uRX30tjNX+/Cml/lflugdwjgajmv3Kp7QX5Zh/HRkaHv42LBYgpWKxoGrXbeg/GuSivc3D4lkkvKGy3ekx+HZ4ZHh46JuPiE4GLEtbMdpWJz0EGLpgRWPWANk7Xqjo4V96N/IB9PV3IyPDQ0PffV2a91klgkG9vrQjAwD3tEbn9b3958yYrph6V3xQRkAffcOXdmTk3+bF9HoRgg5T5T8l9K5pvnVLqI1T4Sv60XdfC90ouSn8LSUuyEMjQ7/+zedeeFq3s3Y4VBHsXhZpUApHjCgCF6yh75Tu5bQ3vh3icjzy0ylug52OUq0hHDEiaZNIzwiZb4eHuFD9oVslKP6jKv/+Wy7IwyPfP5e7wBXY2TuWb20I5r9+MzTCreO3X491iatuEr3i/+7X/K0jwz90g6vngIBZla+/qS3qNzeE7skwURZEKf3lD8M1I/V7udM6G3FBfCUd/Mce0z9w+9St8FgxhbD1+xNgP/9xJGT7/Sm7w8bYkYETMuV/f3ujmwcCkE4uikxbNCI2eP4T/6mHh37sTJ6zD8OxT/00FLr1X91A4W/dPcTGRWYtFeO2vIbtU5zryPMOc33+fWgJh377n+OIh0xdW1eCiHLO8oOqKzuOHXEM54eRH+3OGCggO/YysJf3VGXod6o4myGEdMkGI9McQ3e1IL36ekqR/bxTeR2wHWDbv99j+gOolWOI3rWRr4pO9KtM+qRoFPe/yAGRDpnhUG7+a7gmvj+CYn7theRfVUjXZBghckuz1HUor028/CLbNjpElq9r5KeapX9ux7OOHU58vUW6lrWbZItRetuB4FU3rAOchg9ENgeZ5zinuASf4i9xbGAUL6iMzXSrFYi/Z9Ly6WJnaxFvwv7+B+fVGNRF5quTXWtnQ59qo9KlbGdrEW9CBvba/p9B9lI3R4yY5yR62qk7XKCNcJzX1sCpzkvSuW7IsKkjMpem1io8dNBWZ+E5XjhiZI6YnY+diFDyfW3TsZ3uyfCbiEMPVDQ/KCkdHzFCMrEzlsTWYbzY2ZjwMACvCtfVUetM7Eant3dMNGNRaSkbd+K9kWGjajje5yq1tjp+HEAns5YULAIDdjpfPQzAwJFFNmrNxjrNFc2lfevekRv6jwYD3uN+p+MTX0nApEFY7dAGZKNcqzigbL7T+no2zdTz8NABgN1BHLor3O983EGeSCAlS5I2Pdy98PBgGNi7ro2yTKxj7TE8keKBsNrFQPhwGIuqr14UOpayx5RxUbUu9VZX95Fd0iRxRu9UH7VOBjXq1x2M0R3gKmVqpSPmSSGc6oBmaat2sf6HdAHQvadS8VNFMNvuZomiEDNg/tXsq1pEbxGPFOcpDcI+oHaTJeF1BFRN/3Ha6491dZ2JP/J86ywS2l4X18diMz7Vbnvlaq9Z7gFEXHxBpbRktl9nTXRFC8SGp6d1A8Zy2tcm2z+2WCdzli+udqZHuFUYd3hwvtH2OptpDkqMdbjfpVnIDs93Kkq7fSw5K1LxfIf6K1uFY3+ZltSF9iosQuEO5Gax3f38RwS0wd5oq/b1OiGdoIsqVdezcn/Eh/vARW9ds6w/EdK2o1mc65zE1KWsXO2vdY1UobekMjreviMtiJBZi7FqJN7jvPVdGMW8u01Hrc02DgWK3VWZuNpf8rsPd1X01bm2XflgluYl9sLtM/ndBxyk0ulS2/T1lsW09Q73CLcK7ndEprXF74QXSG8xpl7ued3lEEAoX6ZqMIOOPtlKJyaZtCi7VuzTdY042XXKrM/Mo9/6wF3rBrW0Ox6M91csvA+jmnWXuPMfP/qIEcUsVSxpHniRjvcItwYo5+1qIEnnMkc+DmyaA6Klrcgg8t4lZP0B4GEXr3DjeffI94OZtUAY9GZPrkEYsLqpSvOlo64rOWONqv3qb14CY++aSsVbRzXE46ovLRlOX3ONcA1bUn06cxSipoBmfRpsG8U+da77wHDRp+okal1l9XAH0tJWe7sB2Rjce6ovbugtjxjhvnXeV6/G+yu5ORgGGJToadL6GX60kPbpn8sdPmnUFsjlP6t+eqClXvGww5zMMDb6l9zTKcMFEBpHHRjXGeBibTw13n3yl1EabBGEmj4HUBsGEt47/NdUIvXFLoTN3UrQReRljOWHuVTyrz6zLqIWRozw9IaMpwP157lEIRdNfjFVdutdbtQbwAi0n0WTuWQh998svJfSbPoqBKQTfVai86D6bCcVjSZSjybcvlRb2X6cS/IPLHzx7JeBT8+ZsaZrT8gkH1uj4qrnuvbDcOJ3MrfrFmF/mWRDxu70g2QiF40+3cUwu6pR8S6JNRsroozJJFoJh0ZgN/8smooWCo/y+f7Yo9sHkCEXX76mD6YNbqEM8ILSwGy+fhq24knXajkrAO7000L4n5T7i2sR1j5rZzcr18ZwG9fUUe1s08GTUtKodNt7OQzEdeFuNJpL5qb6yRi70zvJaKrwiBOVwwZyA3i3VaaWmvI5ZIwIs5rEFsFLBcUyhBPcRiVyU+7Rp1q2BTBensoloqncVDk8frt3NQLYptSarH1/o1SFmLAhzmv3svlXCboch/BJMppLTBf7xBy7uwkuaU/k17caAmhnL6lBelyINU7WJJlBKs0ba/lX4SEuxiPG/WQimpjuj/zO5UqVSN435Ii8L2gYTjiQqazSxPFuHkcsiFRbsYv2q1svw4sGQPlvqUQiN90PCwun+M9euF8GxcirwyThiBFjhWftC43v7yio5EtSBbtvnLmp8ZPLfGULOxM8VukJwX0Yrjsd3gJxv5yHb46zA4YB3BdMDRpv3SPhMBB1MfuusELuarnOpp563TzXcAC44d1JJJJ/K0fi7/7owFsXJeti44XxLYtaS0XwbpCUL3O+D3jo+bDHWR7Ocr9aeJSNyMV3ky8jvnaZUXWr0dgJVTTqV733Bp/APMYwvxPap95ydZ+Ft0Vl5Qh+72ZZ2/G2VV+abUyAax0v1soh8/9AZIoHZV8YkV5txcJ8EYTKmps48AAf5sHizyxmzfEgt97aKshEAZWCMj54ZjKE8FkykXoG8z1Ke1w3XtOj3fKBRiPcnSgGqjRP6m/JokzsjM/EazI4mCsXGriT4r+q0aOFzbvlhwWeYmbxgQdJwjtb4DUxEBeEuud3wutvNGnTcw/h6saLYCp8FwRdGLRwAIrxiVwqumPwDzmoeIAdCCPlTZGy0gfzHUQURYlNasza/tDN2Rg/SSSiE50anFcHsvssxSX4Q3Vce21Rk9RJYiLh8P49pXYdgS/eAR88fO5Op6KpRz2SYTyRixYelD9kLNZsd8midEP4QAsqp6roFZUxJ/vBg4Gy+6QQzfXKDj9M5VLTH2xOl6HsUKrOhpORPyDEwoBGtS+N6geLLRBPc42935vtgPxONPG0zmWcEOZXVV8c4NbnULIKKc2rUqWOImLuW58WEjvhTRTdXVzOEO6mEqG21nF42AgTtdLhfU9IR2dEpl2r1ywg4/LjZLTQ/RoFliPlp9wI85y1nnPnYbEv3kKH5zvmOB21bpfrFfgxf1eOCzHsdl8BlvEEz+SelXHdi5dA9jaldOuQeCKsfs9KNNiu2yyAufY/SnEhxl3vocCPU9HEBJbrJh84su374hVy0CV3SIgpZE7j/sYADWzcwN1kLjcNu1x7grLxNBF90MhEIQC9O6JvbRCBvMc23PFRBiX2Yk1uJEjgshRNPna7nLNz3dmJJp/VvRI5EpbZ5LWrjFW4EXp/nIqikFvcMK079loDjSDYeBBNPXHl7q6r7E7xKGa6kR84z1mcFy1xIXaAdSJkK5DohWUYb2gjw3hUKOzALvscHkgkedrRCNcqT4ecC5TObx1w9EEnF3lctdigUGL4OJnYmeh2OBGaxAduo7ffwXXJVy+i92QYoXFLanwYCMZTyUR0uss5rGs8LRSeNPwDy9mv1FE6/l7shMwrfMGrDedpoaNLTnXZ5UB5h3vXxn9gsB1Q68rbMmwKJtpIU2218cMLYbqR3G1xj9Iw5NZuigpDmCnc6FuLtrtqWeJGmKq+1lUTZeaZWnEanyOGJ3YSqSZ+4jcAMHYcpxXXLE8kEqnpSKNcAYbV66p/2tTJK64IZcgZ0VLXvXzDw0CwHHJtpXYKjOXnz5/brSws4IlzYrrhYC1flL3zKtNuxTKvddYUZnwqXc7GQb7RXxvDBzwibuXSPdn+/cjwiNNKBcedSkZz0w0XCQyAq9nLUliOeW2LM7ErqsQWHbmJ4T1uyFVuwekAfGp4eNg2WlhX2BxXGM9iZ5Gp1uQbNUUylw7vHW5qkeBOtDWu2D4VrmsrXME05zoBGokR9+F6l1Q//cakcTIoSfOgqQs19vS1FRk+Ald3uubUm+EKAQgoHXxdUvw4HRb6m5oOHe51FB62EvrvcQWtcS0kEo3LcA2OsWL56bt7domQEqPSOQN4Tfw35HBTkPvXFhwHlk8NDQ211GkuTycShea4yh4wrqvSzVKMmydTFz6zfGsdg6ZQ5OKUnMZyc0+FcL3QNjnQaf7RYiRXSE4V3eaewtcsX/0TUjhXc0ak7Ks12ByMqUIuOm0YTT4W3jbOZXhoxMnj5h+Vp3eihb95E02+tXibUjHcBjBROHxqOyI3h/j9VGIn3+RDNdRGO44ADFp4VH6Q4rE/bvIxvO0z9QoiQmxO9EeD64PN4fTpmzfTN0+fPt3kcyFe/M/w8NCLFh4cPH39Zpq/tekXVoJRP/2pKejzqkSp1DRGR1t5KoT2m6HhIY219CylLb01fGowI5xNa5rYVaR/MzQybHX5pZaYPisMdB//Ozw0fHeh++8Nq6Xdvpbmo5Hhoa7fcdR9mjWEXPvkfsiO4+9cTyb+zvVk4u9cTyKQ8BGPEbt6oUbP8P+Pay8uwvw/68pIuW13mTEAAAAASUVORK5CYII=;" vertex="1" parent="7">
                    <mxGeometry x="20" y="40" width="175.7" height="160" as="geometry"/>
                </mxCell>
                <mxCell id="9" value="length a:&amp;nbsp; &amp;nbsp; &amp;nbsp; &amp;nbsp; &amp;nbsp; &amp;nbsp; &amp;nbsp; &amp;nbsp; &amp;nbsp; &amp;nbsp; &amp;nbsp; &amp;nbsp; &amp;nbsp; &amp;nbsp;cm" style="whiteSpace=wrap;html=1;" vertex="1" parent="7">
                    <mxGeometry x="30" y="210" width="160" height="30" as="geometry"/>
                </mxCell>
                <mxCell id="11" value="length b:&amp;nbsp; &amp;nbsp; &amp;nbsp; &amp;nbsp; &amp;nbsp; &amp;nbsp; &amp;nbsp; &amp;nbsp; &amp;nbsp; &amp;nbsp; &amp;nbsp; &amp;nbsp; &amp;nbsp; &amp;nbsp;cm" style="whiteSpace=wrap;html=1;" vertex="1" parent="7">
                    <mxGeometry x="30" y="250" width="160" height="40" as="geometry"/>
                </mxCell>
                <mxCell id="10" value="length c:&amp;nbsp; &amp;nbsp; &amp;nbsp; &amp;nbsp; &amp;nbsp; &amp;nbsp; &amp;nbsp; &amp;nbsp; &amp;nbsp; &amp;nbsp; &amp;nbsp; &amp;nbsp; &amp;nbsp; &amp;nbsp;cm" style="whiteSpace=wrap;html=1;" vertex="1" parent="7">
                    <mxGeometry x="20" y="300" width="170" height="40" as="geometry"/>
                </mxCell>
                <mxCell id="12" value="what is the triangle?" style="whiteSpace=wrap;html=1;" vertex="1" parent="1">
                    <mxGeometry x="80" y="410" width="130" height="30" as="geometry"/>
                </mxCell>
            </root>
        </mxGraphModel>
    </diagram>
</mxfile>